<?xml version="1.0" encoding="UTF-8" standalone="no"?>
<!DOCTYPE svg PUBLIC "-//W3C//DTD SVG 1.1//EN"
 "http://www.w3.org/Graphics/SVG/1.1/DTD/svg11.dtd">
<!-- Generated by graphviz version 2.40.1 (20161225.0304)
 -->
<!-- Title: dependencies Pages: 1 -->
<svg width="1182pt" height="284pt"
 viewBox="0.00 0.00 1182.00 284.00" xmlns="http://www.w3.org/2000/svg" xmlns:xlink="http://www.w3.org/1999/xlink">
<g id="graph0" class="graph" transform="scale(1 1) rotate(0) translate(4 280)">
<title>dependencies</title>
<polygon fill="#ffffff" stroke="transparent" points="-4,4 -4,-280 1178,-280 1178,4 -4,4"/>
<text text-anchor="start" x="566.0091" y="-42.4" font-family="sans-serif" font-weight="bold" font-size="14.00" fill="#000000">Legend</text>
<polygon fill="#ffffb3" stroke="transparent" points="353,-10 353,-30 373,-30 373,-10 353,-10"/>
<text text-anchor="start" x="376.629" y="-15.4" font-family="sans-serif" font-size="14.00" fill="#000000"> &#160;Declarations</text>
<polygon fill="#8dd3c7" stroke="transparent" points="466,-10 466,-30 486,-30 486,-10 466,-10"/>
<text text-anchor="start" x="489.7251" y="-15.4" font-family="sans-serif" font-size="14.00" fill="#000000"> &#160;Module</text>
<polygon fill="#80b1d3" stroke="transparent" points="552,-10 552,-30 572,-30 572,-10 552,-10"/>
<text text-anchor="start" x="575.7812" y="-15.4" font-family="sans-serif" font-size="14.00" fill="#000000"> &#160;Bootstrap</text>
<polygon fill="#fdb462" stroke="transparent" points="649,-10 649,-30 669,-30 669,-10 649,-10"/>
<text text-anchor="start" x="672.6732" y="-15.4" font-family="sans-serif" font-size="14.00" fill="#000000"> &#160;Providers</text>
<polygon fill="#fb8072" stroke="transparent" points="745,-10 745,-30 765,-30 765,-10 745,-10"/>
<text text-anchor="start" x="768.7258" y="-15.4" font-family="sans-serif" font-size="14.00" fill="#000000"> &#160;Exports</text>
<g id="clust1" class="cluster">
<title>cluster_AppModule</title>
<polygon fill="none" stroke="#000000" stroke-dasharray="1,5" points="8,-70 8,-268 484,-268 484,-70 8,-70"/>
</g>
<g id="clust2" class="cluster">
<title>cluster_AppModule_declarations</title>
<polygon fill="none" stroke="#000000" points="354,-78 354,-130 476,-130 476,-78 354,-78"/>
</g>
<g id="clust4" class="cluster">
<title>cluster_AppModule_imports</title>
<polygon fill="none" stroke="#000000" points="202,-78 202,-130 346,-130 346,-78 202,-78"/>
</g>
<g id="clust6" class="cluster">
<title>cluster_AppModule_bootstrap</title>
<polygon fill="none" stroke="#000000" points="212,-208 212,-260 336,-260 336,-208 212,-208"/>
</g>
<g id="clust7" class="cluster">
<title>cluster_AppModule_providers</title>
<polygon fill="none" stroke="#000000" points="16,-78 16,-130 194,-130 194,-78 16,-78"/>
</g>
<g id="clust14" class="cluster">
<title>cluster_ReposModule</title>
<polygon fill="none" stroke="#000000" stroke-dasharray="1,5" points="492,-70 492,-195 1166,-195 1166,-70 492,-70"/>
</g>
<g id="clust15" class="cluster">
<title>cluster_ReposModule_declarations</title>
<polygon fill="none" stroke="#000000" points="664,-78 664,-130 1158,-130 1158,-78 664,-78"/>
</g>
<g id="clust19" class="cluster">
<title>cluster_ReposModule_imports</title>
<polygon fill="none" stroke="#000000" points="500,-78 500,-130 656,-130 656,-78 500,-78"/>
</g>
<!-- AppComponent -->
<g id="node1" class="node">
<title>AppComponent</title>
<polygon fill="#ffffb3" stroke="#000000" points="467.9399,-122 362.0601,-122 362.0601,-86 467.9399,-86 467.9399,-122"/>
<text text-anchor="middle" x="415" y="-99.8" font-family="Times,serif" font-size="14.00" fill="#000000">AppComponent</text>
</g>
<!-- AppModule -->
<g id="node2" class="node">
<title>AppModule</title>
<polygon fill="#8dd3c7" stroke="#000000" points="315.6571,-187 312.6571,-191 291.6571,-191 288.6571,-187 232.3429,-187 232.3429,-151 315.6571,-151 315.6571,-187"/>
<text text-anchor="middle" x="274" y="-164.8" font-family="Times,serif" font-size="14.00" fill="#000000">AppModule</text>
</g>
<!-- AppComponent&#45;&gt;AppModule -->
<g id="edge1" class="edge">
<title>AppComponent&#45;&gt;AppModule</title>
<path fill="none" stroke="#000000" d="M415,-122.2843C415,-143.3211 415,-175 415,-175 415,-175 325.9229,-175 325.9229,-175"/>
<polygon fill="#000000" stroke="#000000" points="325.9229,-171.5001 315.9229,-175 325.9229,-178.5001 325.9229,-171.5001"/>
</g>
<!-- AppComponent  -->
<g id="node4" class="node">
<title>AppComponent </title>
<polygon fill="#80b1d3" stroke="#000000" points="328.439,-252 219.561,-252 219.561,-216 328.439,-216 328.439,-252"/>
<text text-anchor="middle" x="274" y="-229.8" font-family="Times,serif" font-size="14.00" fill="#000000">AppComponent </text>
</g>
<!-- AppModule&#45;&gt;AppComponent  -->
<g id="edge3" class="edge">
<title>AppModule&#45;&gt;AppComponent </title>
<path fill="none" stroke="#000000" stroke-dasharray="1,5" d="M274,-187.1061C274,-187.1061 274,-205.991 274,-205.991"/>
<polygon fill="#000000" stroke="#000000" points="270.5001,-205.9909 274,-215.991 277.5001,-205.991 270.5001,-205.9909"/>
</g>
<!-- AppRoutingModule -->
<g id="node3" class="node">
<title>AppRoutingModule</title>
<polygon fill="#8dd3c7" stroke="#000000" points="338.2744,-122 335.2744,-126 314.2744,-126 311.2744,-122 209.7256,-122 209.7256,-86 338.2744,-86 338.2744,-122"/>
<text text-anchor="middle" x="274" y="-99.8" font-family="Times,serif" font-size="14.00" fill="#000000">AppRoutingModule</text>
</g>
<!-- AppRoutingModule&#45;&gt;AppModule -->
<g id="edge2" class="edge">
<title>AppRoutingModule&#45;&gt;AppModule</title>
<path fill="none" stroke="#000000" d="M274,-122.1061C274,-122.1061 274,-140.991 274,-140.991"/>
<polygon fill="#000000" stroke="#000000" points="270.5001,-140.9909 274,-150.991 277.5001,-140.991 270.5001,-140.9909"/>
</g>
<!-- GithubApiService -->
<g id="node5" class="node">
<title>GithubApiService</title>
<ellipse fill="#fdb462" stroke="#000000" cx="105" cy="-104" rx="81.0994" ry="18"/>
<text text-anchor="middle" x="105" y="-99.8" font-family="Times,serif" font-size="14.00" fill="#000000">GithubApiService</text>
</g>
<!-- GithubApiService&#45;&gt;AppModule -->
<g id="edge4" class="edge">
<title>GithubApiService&#45;&gt;AppModule</title>
<path fill="none" stroke="#000000" d="M105,-122.1061C105,-141.3391 105,-169 105,-169 105,-169 222.2247,-169 222.2247,-169"/>
<polygon fill="#000000" stroke="#000000" points="222.2247,-172.5001 232.2247,-169 222.2247,-165.5001 222.2247,-172.5001"/>
</g>
<!-- RepoDetailComponent -->
<g id="node6" class="node">
<title>RepoDetailComponent</title>
<polygon fill="#ffffb3" stroke="#000000" points="1149.5912,-122 1004.4088,-122 1004.4088,-86 1149.5912,-86 1149.5912,-122"/>
<text text-anchor="middle" x="1077" y="-99.8" font-family="Times,serif" font-size="14.00" fill="#000000">RepoDetailComponent</text>
</g>
<!-- ReposModule -->
<g id="node9" class="node">
<title>ReposModule</title>
<polygon fill="#8dd3c7" stroke="#000000" points="884.0467,-187 881.0467,-191 860.0467,-191 857.0467,-187 789.9533,-187 789.9533,-151 884.0467,-151 884.0467,-187"/>
<text text-anchor="middle" x="837" y="-164.8" font-family="Times,serif" font-size="14.00" fill="#000000">ReposModule</text>
</g>
<!-- RepoDetailComponent&#45;&gt;ReposModule -->
<g id="edge5" class="edge">
<title>RepoDetailComponent&#45;&gt;ReposModule</title>
<path fill="none" stroke="#000000" d="M1077,-122.1061C1077,-141.3391 1077,-169 1077,-169 1077,-169 894.1299,-169 894.1299,-169"/>
<polygon fill="#000000" stroke="#000000" points="894.13,-165.5001 884.1299,-169 894.1299,-172.5001 894.13,-165.5001"/>
</g>
<!-- RepoListComponent -->
<g id="node7" class="node">
<title>RepoListComponent</title>
<polygon fill="#ffffb3" stroke="#000000" points="986.1624,-122 853.8376,-122 853.8376,-86 986.1624,-86 986.1624,-122"/>
<text text-anchor="middle" x="920" y="-99.8" font-family="Times,serif" font-size="14.00" fill="#000000">RepoListComponent</text>
</g>
<!-- RepoListComponent&#45;&gt;ReposModule -->
<g id="edge6" class="edge">
<title>RepoListComponent&#45;&gt;ReposModule</title>
<path fill="none" stroke="#000000" d="M868.9709,-122.1061C868.9709,-122.1061 868.9709,-140.991 868.9709,-140.991"/>
<polygon fill="#000000" stroke="#000000" points="865.471,-140.9909 868.9709,-150.991 872.471,-140.991 865.471,-140.9909"/>
</g>
<!-- ReposListItemComponent -->
<g id="node8" class="node">
<title>ReposListItemComponent</title>
<polygon fill="#ffffb3" stroke="#000000" points="835.7632,-122 672.2368,-122 672.2368,-86 835.7632,-86 835.7632,-122"/>
<text text-anchor="middle" x="754" y="-99.8" font-family="Times,serif" font-size="14.00" fill="#000000">ReposListItemComponent</text>
</g>
<!-- ReposListItemComponent&#45;&gt;ReposModule -->
<g id="edge7" class="edge">
<title>ReposListItemComponent&#45;&gt;ReposModule</title>
<path fill="none" stroke="#000000" d="M812.8044,-122.1061C812.8044,-122.1061 812.8044,-140.991 812.8044,-140.991"/>
<polygon fill="#000000" stroke="#000000" points="809.3044,-140.9909 812.8044,-150.991 816.3044,-140.991 809.3044,-140.9909"/>
</g>
<!-- ReposRoutingModule -->
<g id="node10" class="node">
<title>ReposRoutingModule</title>
<polygon fill="#8dd3c7" stroke="#000000" points="647.6638,-122 644.6638,-126 623.6638,-126 620.6638,-122 508.3362,-122 508.3362,-86 647.6638,-86 647.6638,-122"/>
<text text-anchor="middle" x="578" y="-99.8" font-family="Times,serif" font-size="14.00" fill="#000000">ReposRoutingModule</text>
</g>
<!-- ReposRoutingModule&#45;&gt;ReposModule -->
<g id="edge8" class="edge">
<title>ReposRoutingModule&#45;&gt;ReposModule</title>
<path fill="none" stroke="#000000" d="M578,-122.0225C578,-139.3734 578,-163 578,-163 578,-163 779.7966,-163 779.7966,-163"/>
<polygon fill="#000000" stroke="#000000" points="779.7966,-166.5001 789.7966,-163 779.7965,-159.5001 779.7966,-166.5001"/>
</g>
</g>
</svg>
