<?xml version="1.0" encoding="UTF-8" standalone="no"?>
<!DOCTYPE svg PUBLIC "-//W3C//DTD SVG 1.1//EN"
 "http://www.w3.org/Graphics/SVG/1.1/DTD/svg11.dtd">
<!-- Generated by graphviz version 2.40.1 (20161225.0304)
 -->
<!-- Title: dependencies Pages: 1 -->
<svg width="2647pt" height="358pt"
 viewBox="0.00 0.00 2647.00 358.00" xmlns="http://www.w3.org/2000/svg" xmlns:xlink="http://www.w3.org/1999/xlink">
<g id="graph0" class="graph" transform="scale(1 1) rotate(0) translate(4 354)">
<title>dependencies</title>
<polygon fill="#ffffff" stroke="transparent" points="-4,4 -4,-354 2643,-354 2643,4 -4,4"/>
<text text-anchor="start" x="1298.5091" y="-42.4" font-family="sans-serif" font-weight="bold" font-size="14.00" fill="#000000">Legend</text>
<polygon fill="#ffffb3" stroke="transparent" points="1085.5,-10 1085.5,-30 1105.5,-30 1105.5,-10 1085.5,-10"/>
<text text-anchor="start" x="1109.129" y="-15.4" font-family="sans-serif" font-size="14.00" fill="#000000"> &#160;Declarations</text>
<polygon fill="#8dd3c7" stroke="transparent" points="1198.5,-10 1198.5,-30 1218.5,-30 1218.5,-10 1198.5,-10"/>
<text text-anchor="start" x="1222.2251" y="-15.4" font-family="sans-serif" font-size="14.00" fill="#000000"> &#160;Module</text>
<polygon fill="#80b1d3" stroke="transparent" points="1284.5,-10 1284.5,-30 1304.5,-30 1304.5,-10 1284.5,-10"/>
<text text-anchor="start" x="1308.2812" y="-15.4" font-family="sans-serif" font-size="14.00" fill="#000000"> &#160;Bootstrap</text>
<polygon fill="#fdb462" stroke="transparent" points="1381.5,-10 1381.5,-30 1401.5,-30 1401.5,-10 1381.5,-10"/>
<text text-anchor="start" x="1405.1732" y="-15.4" font-family="sans-serif" font-size="14.00" fill="#000000"> &#160;Providers</text>
<polygon fill="#fb8072" stroke="transparent" points="1477.5,-10 1477.5,-30 1497.5,-30 1497.5,-10 1477.5,-10"/>
<text text-anchor="start" x="1501.2258" y="-15.4" font-family="sans-serif" font-size="14.00" fill="#000000"> &#160;Exports</text>
<g id="clust1" class="cluster">
<title>cluster_AppModule</title>
<polygon fill="none" stroke="#000000" stroke-dasharray="1,5" points="8,-70 8,-274 773,-274 773,-70 8,-70"/>
</g>
<g id="clust2" class="cluster">
<title>cluster_AppModule_declarations</title>
<polygon fill="none" stroke="#000000" points="354,-78 354,-130 765,-130 765,-78 354,-78"/>
</g>
<g id="clust6" class="cluster">
<title>cluster_AppModule_imports</title>
<polygon fill="none" stroke="#000000" points="202,-78 202,-130 346,-130 346,-78 202,-78"/>
</g>
<g id="clust8" class="cluster">
<title>cluster_AppModule_bootstrap</title>
<polygon fill="none" stroke="#000000" points="369,-214 369,-266 493,-266 493,-214 369,-214"/>
</g>
<g id="clust9" class="cluster">
<title>cluster_AppModule_providers</title>
<polygon fill="none" stroke="#000000" points="16,-78 16,-130 194,-130 194,-78 16,-78"/>
</g>
<g id="clust16" class="cluster">
<title>cluster_NpmPackageInfoModule</title>
<polygon fill="none" stroke="#000000" stroke-dasharray="1,5" points="781,-70 781,-342 1189,-342 1189,-70 781,-70"/>
</g>
<g id="clust17" class="cluster">
<title>cluster_NpmPackageInfoModule_declarations</title>
<polygon fill="none" stroke="#000000" points="789,-146 789,-198 1181,-198 1181,-146 789,-146"/>
</g>
<g id="clust18" class="cluster">
<title>cluster_NpmPackageInfoModule_NpmPackageInfoComponent_providers</title>
<polygon fill="none" stroke="#000000" points="983,-78 983,-130 1181,-130 1181,-78 983,-78"/>
</g>
<g id="clust21" class="cluster">
<title>cluster_NpmPackageInfoModule_exports</title>
<polygon fill="none" stroke="#000000" points="983,-282 983,-334 1181,-334 1181,-282 983,-282"/>
</g>
<g id="clust24" class="cluster">
<title>cluster_ObjectTreeModule</title>
<polygon fill="none" stroke="#000000" stroke-dasharray="1,5" points="1925,-138 1925,-342 2105,-342 2105,-138 1925,-138"/>
</g>
<g id="clust25" class="cluster">
<title>cluster_ObjectTreeModule_declarations</title>
<polygon fill="none" stroke="#000000" points="1935,-146 1935,-198 2095,-198 2095,-146 1935,-146"/>
</g>
<g id="clust28" class="cluster">
<title>cluster_ObjectTreeModule_exports</title>
<polygon fill="none" stroke="#000000" points="1933,-282 1933,-334 2097,-334 2097,-282 1933,-282"/>
</g>
<g id="clust31" class="cluster">
<title>cluster_RepoModule</title>
<polygon fill="none" stroke="#000000" stroke-dasharray="1,5" points="1197,-206 1197,-334 1917,-334 1917,-206 1197,-206"/>
</g>
<g id="clust32" class="cluster">
<title>cluster_RepoModule_declarations</title>
<polygon fill="none" stroke="#000000" points="1363,-214 1363,-266 1909,-266 1909,-214 1363,-214"/>
</g>
<g id="clust36" class="cluster">
<title>cluster_RepoModule_imports</title>
<polygon fill="none" stroke="#000000" points="1205,-214 1205,-266 1355,-266 1355,-214 1205,-214"/>
</g>
<g id="clust46" class="cluster">
<title>cluster_ReposModule</title>
<polygon fill="none" stroke="#000000" stroke-dasharray="1,5" points="2113,-206 2113,-334 2631,-334 2631,-206 2113,-206"/>
</g>
<g id="clust47" class="cluster">
<title>cluster_ReposModule_declarations</title>
<polygon fill="none" stroke="#000000" points="2285,-214 2285,-266 2623,-266 2623,-214 2285,-214"/>
</g>
<g id="clust50" class="cluster">
<title>cluster_ReposModule_imports</title>
<polygon fill="none" stroke="#000000" points="2121,-214 2121,-266 2277,-266 2277,-214 2121,-214"/>
</g>
<!-- AppComponent -->
<g id="node1" class="node">
<title>AppComponent</title>
<polygon fill="#ffffb3" stroke="#000000" points="756.9399,-122 651.0601,-122 651.0601,-86 756.9399,-86 756.9399,-122"/>
<text text-anchor="middle" x="704" y="-99.8" font-family="Times,serif" font-size="14.00" fill="#000000">AppComponent</text>
</g>
<!-- AppModule -->
<g id="node4" class="node">
<title>AppModule</title>
<polygon fill="#8dd3c7" stroke="#000000" points="472.6571,-190 469.6571,-194 448.6571,-194 445.6571,-190 389.3429,-190 389.3429,-154 472.6571,-154 472.6571,-190"/>
<text text-anchor="middle" x="431" y="-167.8" font-family="Times,serif" font-size="14.00" fill="#000000">AppModule</text>
</g>
<!-- AppComponent&#45;&gt;AppModule -->
<g id="edge1" class="edge">
<title>AppComponent&#45;&gt;AppModule</title>
<path fill="none" stroke="#000000" d="M704,-122.2921C704,-144.2057 704,-178 704,-178 704,-178 482.76,-178 482.76,-178"/>
<polygon fill="#000000" stroke="#000000" points="482.76,-174.5001 472.76,-178 482.76,-181.5001 482.76,-174.5001"/>
</g>
<!-- HomeComponent -->
<g id="node2" class="node">
<title>HomeComponent</title>
<polygon fill="#ffffb3" stroke="#000000" points="633.5451,-122 518.4549,-122 518.4549,-86 633.5451,-86 633.5451,-122"/>
<text text-anchor="middle" x="576" y="-99.8" font-family="Times,serif" font-size="14.00" fill="#000000">HomeComponent</text>
</g>
<!-- HomeComponent&#45;&gt;AppModule -->
<g id="edge2" class="edge">
<title>HomeComponent&#45;&gt;AppModule</title>
<path fill="none" stroke="#000000" d="M576,-122.2667C576,-140.5552 576,-166 576,-166 576,-166 482.94,-166 482.94,-166"/>
<polygon fill="#000000" stroke="#000000" points="482.94,-162.5001 472.94,-166 482.94,-169.5001 482.94,-162.5001"/>
</g>
<!-- NotFoundComponent -->
<g id="node3" class="node">
<title>NotFoundComponent</title>
<polygon fill="#ffffb3" stroke="#000000" points="500.1122,-122 361.8878,-122 361.8878,-86 500.1122,-86 500.1122,-122"/>
<text text-anchor="middle" x="431" y="-99.8" font-family="Times,serif" font-size="14.00" fill="#000000">NotFoundComponent</text>
</g>
<!-- NotFoundComponent&#45;&gt;AppModule -->
<g id="edge3" class="edge">
<title>NotFoundComponent&#45;&gt;AppModule</title>
<path fill="none" stroke="#000000" d="M431,-122.2228C431,-122.2228 431,-143.7269 431,-143.7269"/>
<polygon fill="#000000" stroke="#000000" points="427.5001,-143.7269 431,-153.7269 434.5001,-143.727 427.5001,-143.7269"/>
</g>
<!-- AppComponent  -->
<g id="node6" class="node">
<title>AppComponent </title>
<polygon fill="#80b1d3" stroke="#000000" points="485.439,-258 376.561,-258 376.561,-222 485.439,-222 485.439,-258"/>
<text text-anchor="middle" x="431" y="-235.8" font-family="Times,serif" font-size="14.00" fill="#000000">AppComponent </text>
</g>
<!-- AppModule&#45;&gt;AppComponent  -->
<g id="edge5" class="edge">
<title>AppModule&#45;&gt;AppComponent </title>
<path fill="none" stroke="#000000" stroke-dasharray="1,5" d="M431,-190.2228C431,-190.2228 431,-211.7269 431,-211.7269"/>
<polygon fill="#000000" stroke="#000000" points="427.5001,-211.7269 431,-221.7269 434.5001,-211.727 427.5001,-211.7269"/>
</g>
<!-- AppRoutingModule -->
<g id="node5" class="node">
<title>AppRoutingModule</title>
<polygon fill="#8dd3c7" stroke="#000000" points="338.2744,-122 335.2744,-126 314.2744,-126 311.2744,-122 209.7256,-122 209.7256,-86 338.2744,-86 338.2744,-122"/>
<text text-anchor="middle" x="274" y="-99.8" font-family="Times,serif" font-size="14.00" fill="#000000">AppRoutingModule</text>
</g>
<!-- AppRoutingModule&#45;&gt;AppModule -->
<g id="edge4" class="edge">
<title>AppRoutingModule&#45;&gt;AppModule</title>
<path fill="none" stroke="#000000" d="M274,-122.2667C274,-140.5552 274,-166 274,-166 274,-166 379.3391,-166 379.3391,-166"/>
<polygon fill="#000000" stroke="#000000" points="379.3391,-169.5001 389.3391,-166 379.339,-162.5001 379.3391,-169.5001"/>
</g>
<!-- GithubApiService -->
<g id="node7" class="node">
<title>GithubApiService</title>
<ellipse fill="#fdb462" stroke="#000000" cx="105" cy="-104" rx="81.0994" ry="18"/>
<text text-anchor="middle" x="105" y="-99.8" font-family="Times,serif" font-size="14.00" fill="#000000">GithubApiService</text>
</g>
<!-- GithubApiService&#45;&gt;AppModule -->
<g id="edge6" class="edge">
<title>GithubApiService&#45;&gt;AppModule</title>
<path fill="none" stroke="#000000" d="M105,-122.2921C105,-144.2057 105,-178 105,-178 105,-178 379.0486,-178 379.0486,-178"/>
<polygon fill="#000000" stroke="#000000" points="379.0486,-181.5001 389.0486,-178 379.0486,-174.5001 379.0486,-181.5001"/>
</g>
<!-- NpmPackageInfoComponent -->
<g id="node8" class="node">
<title>NpmPackageInfoComponent</title>
<polygon fill="#ffffb3" stroke="#000000" points="1172.792,-190 993.208,-190 993.208,-154 1172.792,-154 1172.792,-190"/>
<text text-anchor="middle" x="1083" y="-167.8" font-family="Times,serif" font-size="14.00" fill="#000000">NpmPackageInfoComponent</text>
</g>
<!-- NpmPackageInfoModule -->
<g id="node10" class="node">
<title>NpmPackageInfoModule</title>
<polygon fill="#8dd3c7" stroke="#000000" points="1160.51,-258 1157.51,-262 1136.51,-262 1133.51,-258 1003.49,-258 1003.49,-222 1160.51,-222 1160.51,-258"/>
<text text-anchor="middle" x="1082" y="-235.8" font-family="Times,serif" font-size="14.00" fill="#000000">NpmPackageInfoModule</text>
</g>
<!-- NpmPackageInfoComponent&#45;&gt;NpmPackageInfoModule -->
<g id="edge7" class="edge">
<title>NpmPackageInfoComponent&#45;&gt;NpmPackageInfoModule</title>
<path fill="none" stroke="#000000" d="M1082,-190.2228C1082,-190.2228 1082,-211.7269 1082,-211.7269"/>
<polygon fill="#000000" stroke="#000000" points="1078.5001,-211.7269 1082,-221.7269 1085.5001,-211.727 1078.5001,-211.7269"/>
</g>
<!-- NpmPackageListComponent -->
<g id="node9" class="node">
<title>NpmPackageListComponent</title>
<polygon fill="#ffffb3" stroke="#000000" points="974.7492,-190 797.2508,-190 797.2508,-154 974.7492,-154 974.7492,-190"/>
<text text-anchor="middle" x="886" y="-167.8" font-family="Times,serif" font-size="14.00" fill="#000000">NpmPackageListComponent</text>
</g>
<!-- NpmPackageListComponent&#45;&gt;NpmPackageInfoModule -->
<g id="edge9" class="edge">
<title>NpmPackageListComponent&#45;&gt;NpmPackageInfoModule</title>
<path fill="none" stroke="#000000" d="M886,-190.2228C886,-210.3652 886,-240 886,-240 886,-240 993.4086,-240 993.4086,-240"/>
<polygon fill="#000000" stroke="#000000" points="993.4087,-243.5001 1003.4086,-240 993.4086,-236.5001 993.4087,-243.5001"/>
</g>
<!-- NpmPackageInfoComponent  -->
<g id="node12" class="node">
<title>NpmPackageInfoComponent </title>
<polygon fill="#fb8072" stroke="#000000" points="1173.2919,-326 990.7081,-326 990.7081,-290 1173.2919,-290 1173.2919,-326"/>
<text text-anchor="middle" x="1082" y="-303.8" font-family="Times,serif" font-size="14.00" fill="#000000">NpmPackageInfoComponent </text>
</g>
<!-- NpmPackageInfoModule&#45;&gt;NpmPackageInfoComponent  -->
<g id="edge10" class="edge">
<title>NpmPackageInfoModule&#45;&gt;NpmPackageInfoComponent </title>
<path fill="none" stroke="#000000" stroke-dasharray="5,2" d="M1082,-258.2228C1082,-258.2228 1082,-279.7269 1082,-279.7269"/>
<polygon fill="#000000" stroke="#000000" points="1078.5001,-279.7269 1082,-289.7269 1085.5001,-279.727 1078.5001,-279.7269"/>
</g>
<!-- RepoModule -->
<g id="node19" class="node">
<title>RepoModule</title>
<polygon fill="#8dd3c7" stroke="#000000" points="1605.6011,-326 1602.6011,-330 1581.6011,-330 1578.6011,-326 1516.3989,-326 1516.3989,-290 1605.6011,-290 1605.6011,-326"/>
<text text-anchor="middle" x="1561" y="-303.8" font-family="Times,serif" font-size="14.00" fill="#000000">RepoModule</text>
</g>
<!-- NpmPackageInfoModule&#45;&gt;RepoModule -->
<g id="edge16" class="edge">
<title>NpmPackageInfoModule&#45;&gt;RepoModule</title>
<path fill="none" stroke="#000000" d="M1160.7256,-240C1178.9796,-240 1193.1833,-240 1193.1833,-240 1193.1833,-240 1193.1833,-314 1193.1833,-314 1193.1833,-314 1506.2662,-314 1506.2662,-314"/>
<polygon fill="#000000" stroke="#000000" points="1506.2662,-317.5001 1516.2662,-314 1506.2661,-310.5001 1506.2662,-317.5001"/>
</g>
<!-- NpmPackageService -->
<g id="node11" class="node">
<title>NpmPackageService</title>
<ellipse fill="#fdb462" stroke="#000000" cx="1082" cy="-104" rx="91.4519" ry="18"/>
<text text-anchor="middle" x="1082" y="-99.8" font-family="Times,serif" font-size="14.00" fill="#000000">NpmPackageService</text>
</g>
<!-- NpmPackageService&#45;&gt;NpmPackageInfoComponent -->
<g id="edge8" class="edge">
<title>NpmPackageService&#45;&gt;NpmPackageInfoComponent</title>
<path fill="none" stroke="#000000" d="M1083,-122.2228C1083,-122.2228 1083,-143.7269 1083,-143.7269"/>
<polygon fill="#000000" stroke="#000000" points="1079.5001,-143.7269 1083,-153.7269 1086.5001,-143.727 1079.5001,-143.7269"/>
</g>
<!-- ObjectTreeComponent -->
<g id="node13" class="node">
<title>ObjectTreeComponent</title>
<polygon fill="#ffffb3" stroke="#000000" points="2087.2921,-190 1942.7079,-190 1942.7079,-154 2087.2921,-154 2087.2921,-190"/>
<text text-anchor="middle" x="2015" y="-167.8" font-family="Times,serif" font-size="14.00" fill="#000000">ObjectTreeComponent</text>
</g>
<!-- ObjectTreeModule -->
<g id="node14" class="node">
<title>ObjectTreeModule</title>
<polygon fill="#8dd3c7" stroke="#000000" points="2076.0102,-258 2073.0102,-262 2052.0102,-262 2049.0102,-258 1953.9898,-258 1953.9898,-222 2076.0102,-222 2076.0102,-258"/>
<text text-anchor="middle" x="2015" y="-235.8" font-family="Times,serif" font-size="14.00" fill="#000000">ObjectTreeModule</text>
</g>
<!-- ObjectTreeComponent&#45;&gt;ObjectTreeModule -->
<g id="edge11" class="edge">
<title>ObjectTreeComponent&#45;&gt;ObjectTreeModule</title>
<path fill="none" stroke="#000000" d="M2015,-190.2228C2015,-190.2228 2015,-211.7269 2015,-211.7269"/>
<polygon fill="#000000" stroke="#000000" points="2011.5001,-211.7269 2015,-221.7269 2018.5001,-211.727 2011.5001,-211.7269"/>
</g>
<!-- ObjectTreeComponent  -->
<g id="node15" class="node">
<title>ObjectTreeComponent </title>
<polygon fill="#fb8072" stroke="#000000" points="2088.7919,-326 1941.2081,-326 1941.2081,-290 2088.7919,-290 2088.7919,-326"/>
<text text-anchor="middle" x="2015" y="-303.8" font-family="Times,serif" font-size="14.00" fill="#000000">ObjectTreeComponent </text>
</g>
<!-- ObjectTreeModule&#45;&gt;ObjectTreeComponent  -->
<g id="edge12" class="edge">
<title>ObjectTreeModule&#45;&gt;ObjectTreeComponent </title>
<path fill="none" stroke="#000000" stroke-dasharray="5,2" d="M2015,-258.2228C2015,-258.2228 2015,-279.7269 2015,-279.7269"/>
<polygon fill="#000000" stroke="#000000" points="2011.5001,-279.7269 2015,-289.7269 2018.5001,-279.727 2011.5001,-279.7269"/>
</g>
<!-- ObjectTreeModule&#45;&gt;RepoModule -->
<g id="edge17" class="edge">
<title>ObjectTreeModule&#45;&gt;RepoModule</title>
<path fill="none" stroke="#000000" d="M1953.7627,-240C1935.7754,-240 1920.8249,-240 1920.8249,-240 1920.8249,-240 1920.8249,-314 1920.8249,-314 1920.8249,-314 1615.8445,-314 1615.8445,-314"/>
<polygon fill="#000000" stroke="#000000" points="1615.8446,-310.5001 1605.8445,-314 1615.8445,-317.5001 1615.8446,-310.5001"/>
</g>
<!-- ReposModule -->
<g id="node23" class="node">
<title>ReposModule</title>
<polygon fill="#8dd3c7" stroke="#000000" points="2336.0467,-326 2333.0467,-330 2312.0467,-330 2309.0467,-326 2241.9533,-326 2241.9533,-290 2336.0467,-290 2336.0467,-326"/>
<text text-anchor="middle" x="2289" y="-303.8" font-family="Times,serif" font-size="14.00" fill="#000000">ReposModule</text>
</g>
<!-- ObjectTreeModule&#45;&gt;ReposModule -->
<g id="edge21" class="edge">
<title>ObjectTreeModule&#45;&gt;ReposModule</title>
<path fill="none" stroke="#000000" d="M2076.1442,-240C2094.1043,-240 2109.0321,-240 2109.0321,-240 2109.0321,-240 2109.0321,-308 2109.0321,-308 2109.0321,-308 2231.7156,-308 2231.7156,-308"/>
<polygon fill="#000000" stroke="#000000" points="2231.7156,-311.5001 2241.7156,-308 2231.7155,-304.5001 2231.7156,-311.5001"/>
</g>
<!-- RepoDetailComponent -->
<g id="node16" class="node">
<title>RepoDetailComponent</title>
<polygon fill="#ffffb3" stroke="#000000" points="1900.5912,-258 1755.4088,-258 1755.4088,-222 1900.5912,-222 1900.5912,-258"/>
<text text-anchor="middle" x="1828" y="-235.8" font-family="Times,serif" font-size="14.00" fill="#000000">RepoDetailComponent</text>
</g>
<!-- RepoDetailComponent&#45;&gt;RepoModule -->
<g id="edge13" class="edge">
<title>RepoDetailComponent&#45;&gt;RepoModule</title>
<path fill="none" stroke="#000000" d="M1828,-258.2667C1828,-276.5552 1828,-302 1828,-302 1828,-302 1615.6898,-302 1615.6898,-302"/>
<polygon fill="#000000" stroke="#000000" points="1615.6898,-298.5001 1605.6898,-302 1615.6898,-305.5001 1615.6898,-298.5001"/>
</g>
<!-- RepoStatsBoxComponent -->
<g id="node17" class="node">
<title>RepoStatsBoxComponent</title>
<polygon fill="#ffffb3" stroke="#000000" points="1737.9438,-258 1576.0562,-258 1576.0562,-222 1737.9438,-222 1737.9438,-258"/>
<text text-anchor="middle" x="1657" y="-235.8" font-family="Times,serif" font-size="14.00" fill="#000000">RepoStatsBoxComponent</text>
</g>
<!-- RepoStatsBoxComponent&#45;&gt;RepoModule -->
<g id="edge14" class="edge">
<title>RepoStatsBoxComponent&#45;&gt;RepoModule</title>
<path fill="none" stroke="#000000" d="M1590.9145,-258.2228C1590.9145,-258.2228 1590.9145,-279.7269 1590.9145,-279.7269"/>
<polygon fill="#000000" stroke="#000000" points="1587.4145,-279.7269 1590.9145,-289.7269 1594.4145,-279.727 1587.4145,-279.7269"/>
</g>
<!-- RepoStatsBoxItemComponent -->
<g id="node18" class="node">
<title>RepoStatsBoxItemComponent</title>
<polygon fill="#ffffb3" stroke="#000000" points="1558.5996,-258 1371.4004,-258 1371.4004,-222 1558.5996,-222 1558.5996,-258"/>
<text text-anchor="middle" x="1465" y="-235.8" font-family="Times,serif" font-size="14.00" fill="#000000">RepoStatsBoxItemComponent</text>
</g>
<!-- RepoStatsBoxItemComponent&#45;&gt;RepoModule -->
<g id="edge15" class="edge">
<title>RepoStatsBoxItemComponent&#45;&gt;RepoModule</title>
<path fill="none" stroke="#000000" d="M1537.4997,-258.2228C1537.4997,-258.2228 1537.4997,-279.7269 1537.4997,-279.7269"/>
<polygon fill="#000000" stroke="#000000" points="1533.9997,-279.7269 1537.4997,-289.7269 1540.9997,-279.727 1533.9997,-279.7269"/>
</g>
<!-- RepoRoutingModule -->
<g id="node20" class="node">
<title>RepoRoutingModule</title>
<polygon fill="#8dd3c7" stroke="#000000" points="1347.219,-258 1344.219,-262 1323.219,-262 1320.219,-258 1212.781,-258 1212.781,-222 1347.219,-222 1347.219,-258"/>
<text text-anchor="middle" x="1280" y="-235.8" font-family="Times,serif" font-size="14.00" fill="#000000">RepoRoutingModule</text>
</g>
<!-- RepoRoutingModule&#45;&gt;RepoModule -->
<g id="edge18" class="edge">
<title>RepoRoutingModule&#45;&gt;RepoModule</title>
<path fill="none" stroke="#000000" d="M1280,-258.2667C1280,-276.5552 1280,-302 1280,-302 1280,-302 1506.164,-302 1506.164,-302"/>
<polygon fill="#000000" stroke="#000000" points="1506.164,-305.5001 1516.164,-302 1506.164,-298.5001 1506.164,-305.5001"/>
</g>
<!-- RepoListComponent -->
<g id="node21" class="node">
<title>RepoListComponent</title>
<polygon fill="#ffffb3" stroke="#000000" points="2615.1624,-258 2482.8376,-258 2482.8376,-222 2615.1624,-222 2615.1624,-258"/>
<text text-anchor="middle" x="2549" y="-235.8" font-family="Times,serif" font-size="14.00" fill="#000000">RepoListComponent</text>
</g>
<!-- RepoListComponent&#45;&gt;ReposModule -->
<g id="edge19" class="edge">
<title>RepoListComponent&#45;&gt;ReposModule</title>
<path fill="none" stroke="#000000" d="M2549,-258.2228C2549,-278.3652 2549,-308 2549,-308 2549,-308 2346.084,-308 2346.084,-308"/>
<polygon fill="#000000" stroke="#000000" points="2346.0841,-304.5001 2336.084,-308 2346.084,-311.5001 2346.0841,-304.5001"/>
</g>
<!-- ReposOverviewComponent -->
<g id="node22" class="node">
<title>ReposOverviewComponent</title>
<polygon fill="#ffffb3" stroke="#000000" points="2464.5225,-258 2293.4775,-258 2293.4775,-222 2464.5225,-222 2464.5225,-258"/>
<text text-anchor="middle" x="2379" y="-235.8" font-family="Times,serif" font-size="14.00" fill="#000000">ReposOverviewComponent</text>
</g>
<!-- ReposOverviewComponent&#45;&gt;ReposModule -->
<g id="edge20" class="edge">
<title>ReposOverviewComponent&#45;&gt;ReposModule</title>
<path fill="none" stroke="#000000" d="M2314.7559,-258.2228C2314.7559,-258.2228 2314.7559,-279.7269 2314.7559,-279.7269"/>
<polygon fill="#000000" stroke="#000000" points="2311.256,-279.7269 2314.7559,-289.7269 2318.256,-279.727 2311.256,-279.7269"/>
</g>
<!-- ReposRoutingModule -->
<g id="node24" class="node">
<title>ReposRoutingModule</title>
<polygon fill="#8dd3c7" stroke="#000000" points="2268.6638,-258 2265.6638,-262 2244.6638,-262 2241.6638,-258 2129.3362,-258 2129.3362,-222 2268.6638,-222 2268.6638,-258"/>
<text text-anchor="middle" x="2199" y="-235.8" font-family="Times,serif" font-size="14.00" fill="#000000">ReposRoutingModule</text>
</g>
<!-- ReposRoutingModule&#45;&gt;ReposModule -->
<g id="edge22" class="edge">
<title>ReposRoutingModule&#45;&gt;ReposModule</title>
<path fill="none" stroke="#000000" d="M2255.2795,-258.2228C2255.2795,-258.2228 2255.2795,-279.7269 2255.2795,-279.7269"/>
<polygon fill="#000000" stroke="#000000" points="2251.7795,-279.7269 2255.2795,-289.7269 2258.7795,-279.727 2251.7795,-279.7269"/>
</g>
</g>
</svg>
