<?xml version="1.0" encoding="UTF-8" standalone="no"?>
<!DOCTYPE svg PUBLIC "-//W3C//DTD SVG 1.1//EN"
 "http://www.w3.org/Graphics/SVG/1.1/DTD/svg11.dtd">
<!-- Generated by graphviz version 2.40.1 (20161225.0304)
 -->
<!-- Title: dependencies Pages: 1 -->
<svg width="504pt" height="349pt"
 viewBox="0.00 0.00 504.00 349.00" xmlns="http://www.w3.org/2000/svg" xmlns:xlink="http://www.w3.org/1999/xlink">
<g id="graph0" class="graph" transform="scale(1 1) rotate(0) translate(4 345)">
<title>dependencies</title>
<polygon fill="#ffffff" stroke="transparent" points="-4,4 -4,-345 500,-345 500,4 -4,4"/>
<text text-anchor="start" x="227.0091" y="-42.4" font-family="sans-serif" font-weight="bold" font-size="14.00" fill="#000000">Legend</text>
<polygon fill="#ffffb3" stroke="transparent" points="14,-10 14,-30 34,-30 34,-10 14,-10"/>
<text text-anchor="start" x="37.629" y="-15.4" font-family="sans-serif" font-size="14.00" fill="#000000"> &#160;Declarations</text>
<polygon fill="#8dd3c7" stroke="transparent" points="127,-10 127,-30 147,-30 147,-10 127,-10"/>
<text text-anchor="start" x="150.7251" y="-15.4" font-family="sans-serif" font-size="14.00" fill="#000000"> &#160;Module</text>
<polygon fill="#80b1d3" stroke="transparent" points="213,-10 213,-30 233,-30 233,-10 213,-10"/>
<text text-anchor="start" x="236.7812" y="-15.4" font-family="sans-serif" font-size="14.00" fill="#000000"> &#160;Bootstrap</text>
<polygon fill="#fdb462" stroke="transparent" points="310,-10 310,-30 330,-30 330,-10 310,-10"/>
<text text-anchor="start" x="333.6732" y="-15.4" font-family="sans-serif" font-size="14.00" fill="#000000"> &#160;Providers</text>
<polygon fill="#fb8072" stroke="transparent" points="406,-10 406,-30 426,-30 426,-10 406,-10"/>
<text text-anchor="start" x="429.7258" y="-15.4" font-family="sans-serif" font-size="14.00" fill="#000000"> &#160;Exports</text>
<g id="clust1" class="cluster">
<title>cluster_NpmPackageInfoModule</title>
<polygon fill="none" stroke="#000000" stroke-dasharray="1,5" points="44,-70 44,-333 452,-333 452,-70 44,-70"/>
</g>
<g id="clust2" class="cluster">
<title>cluster_NpmPackageInfoModule_declarations</title>
<polygon fill="none" stroke="#000000" points="52,-143 52,-195 444,-195 444,-143 52,-143"/>
</g>
<g id="clust3" class="cluster">
<title>cluster_NpmPackageInfoModule_NpmPackageInfoComponent_providers</title>
<polygon fill="none" stroke="#000000" points="246,-78 246,-130 444,-130 444,-78 246,-78"/>
</g>
<g id="clust6" class="cluster">
<title>cluster_NpmPackageInfoModule_exports</title>
<polygon fill="none" stroke="#000000" points="149,-273 149,-325 347,-325 347,-273 149,-273"/>
</g>
<!-- NpmPackageInfoComponent -->
<g id="node1" class="node">
<title>NpmPackageInfoComponent</title>
<polygon fill="#ffffb3" stroke="#000000" points="435.792,-187 256.208,-187 256.208,-151 435.792,-151 435.792,-187"/>
<text text-anchor="middle" x="346" y="-164.8" font-family="Times,serif" font-size="14.00" fill="#000000">NpmPackageInfoComponent</text>
</g>
<!-- NpmPackageInfoModule -->
<g id="node3" class="node">
<title>NpmPackageInfoModule</title>
<polygon fill="#8dd3c7" stroke="#000000" points="326.51,-252 323.51,-256 302.51,-256 299.51,-252 169.49,-252 169.49,-216 326.51,-216 326.51,-252"/>
<text text-anchor="middle" x="248" y="-229.8" font-family="Times,serif" font-size="14.00" fill="#000000">NpmPackageInfoModule</text>
</g>
<!-- NpmPackageInfoComponent&#45;&gt;NpmPackageInfoModule -->
<g id="edge1" class="edge">
<title>NpmPackageInfoComponent&#45;&gt;NpmPackageInfoModule</title>
<path fill="none" stroke="#000000" d="M291.5544,-187.1061C291.5544,-187.1061 291.5544,-205.991 291.5544,-205.991"/>
<polygon fill="#000000" stroke="#000000" points="288.0544,-205.9909 291.5544,-215.991 295.0544,-205.991 288.0544,-205.9909"/>
</g>
<!-- NpmPackageListComponent -->
<g id="node2" class="node">
<title>NpmPackageListComponent</title>
<polygon fill="#ffffb3" stroke="#000000" points="237.7492,-187 60.2508,-187 60.2508,-151 237.7492,-151 237.7492,-187"/>
<text text-anchor="middle" x="149" y="-164.8" font-family="Times,serif" font-size="14.00" fill="#000000">NpmPackageListComponent</text>
</g>
<!-- NpmPackageListComponent&#45;&gt;NpmPackageInfoModule -->
<g id="edge3" class="edge">
<title>NpmPackageListComponent&#45;&gt;NpmPackageInfoModule</title>
<path fill="none" stroke="#000000" d="M203.5599,-187.1061C203.5599,-187.1061 203.5599,-205.991 203.5599,-205.991"/>
<polygon fill="#000000" stroke="#000000" points="200.06,-205.9909 203.5599,-215.991 207.06,-205.991 200.06,-205.9909"/>
</g>
<!-- NpmPackageInfoComponent  -->
<g id="node5" class="node">
<title>NpmPackageInfoComponent </title>
<polygon fill="#fb8072" stroke="#000000" points="339.2919,-317 156.7081,-317 156.7081,-281 339.2919,-281 339.2919,-317"/>
<text text-anchor="middle" x="248" y="-294.8" font-family="Times,serif" font-size="14.00" fill="#000000">NpmPackageInfoComponent </text>
</g>
<!-- NpmPackageInfoModule&#45;&gt;NpmPackageInfoComponent  -->
<g id="edge4" class="edge">
<title>NpmPackageInfoModule&#45;&gt;NpmPackageInfoComponent </title>
<path fill="none" stroke="#000000" stroke-dasharray="5,2" d="M248,-252.1061C248,-252.1061 248,-270.991 248,-270.991"/>
<polygon fill="#000000" stroke="#000000" points="244.5001,-270.9909 248,-280.991 251.5001,-270.991 244.5001,-270.9909"/>
</g>
<!-- NpmPackageService -->
<g id="node4" class="node">
<title>NpmPackageService</title>
<ellipse fill="#fdb462" stroke="#000000" cx="345" cy="-104" rx="91.4519" ry="18"/>
<text text-anchor="middle" x="345" y="-99.8" font-family="Times,serif" font-size="14.00" fill="#000000">NpmPackageService</text>
</g>
<!-- NpmPackageService&#45;&gt;NpmPackageInfoComponent -->
<g id="edge2" class="edge">
<title>NpmPackageService&#45;&gt;NpmPackageInfoComponent</title>
<path fill="none" stroke="#000000" d="M346,-122.1061C346,-122.1061 346,-140.991 346,-140.991"/>
<polygon fill="#000000" stroke="#000000" points="342.5001,-140.9909 346,-150.991 349.5001,-140.991 342.5001,-140.9909"/>
</g>
</g>
</svg>
