<?xml version="1.0" encoding="UTF-8" standalone="no"?>
<!DOCTYPE svg PUBLIC "-//W3C//DTD SVG 1.1//EN"
 "http://www.w3.org/Graphics/SVG/1.1/DTD/svg11.dtd">
<!-- Generated by graphviz version 2.40.1 (20161225.0304)
 -->
<!-- Title: dependencies Pages: 1 -->
<svg width="789pt" height="284pt"
 viewBox="0.00 0.00 789.00 284.00" xmlns="http://www.w3.org/2000/svg" xmlns:xlink="http://www.w3.org/1999/xlink">
<g id="graph0" class="graph" transform="scale(1 1) rotate(0) translate(4 280)">
<title>dependencies</title>
<polygon fill="#ffffff" stroke="transparent" points="-4,4 -4,-280 785,-280 785,4 -4,4"/>
<text text-anchor="start" x="369.5091" y="-42.4" font-family="sans-serif" font-weight="bold" font-size="14.00" fill="#000000">Legend</text>
<polygon fill="#ffffb3" stroke="transparent" points="156.5,-10 156.5,-30 176.5,-30 176.5,-10 156.5,-10"/>
<text text-anchor="start" x="180.129" y="-15.4" font-family="sans-serif" font-size="14.00" fill="#000000"> &#160;Declarations</text>
<polygon fill="#8dd3c7" stroke="transparent" points="269.5,-10 269.5,-30 289.5,-30 289.5,-10 269.5,-10"/>
<text text-anchor="start" x="293.2251" y="-15.4" font-family="sans-serif" font-size="14.00" fill="#000000"> &#160;Module</text>
<polygon fill="#80b1d3" stroke="transparent" points="355.5,-10 355.5,-30 375.5,-30 375.5,-10 355.5,-10"/>
<text text-anchor="start" x="379.2812" y="-15.4" font-family="sans-serif" font-size="14.00" fill="#000000"> &#160;Bootstrap</text>
<polygon fill="#fdb462" stroke="transparent" points="452.5,-10 452.5,-30 472.5,-30 472.5,-10 452.5,-10"/>
<text text-anchor="start" x="476.1732" y="-15.4" font-family="sans-serif" font-size="14.00" fill="#000000"> &#160;Providers</text>
<polygon fill="#fb8072" stroke="transparent" points="548.5,-10 548.5,-30 568.5,-30 568.5,-10 548.5,-10"/>
<text text-anchor="start" x="572.2258" y="-15.4" font-family="sans-serif" font-size="14.00" fill="#000000"> &#160;Exports</text>
<g id="clust1" class="cluster">
<title>cluster_AppModule</title>
<polygon fill="none" stroke="#000000" stroke-dasharray="1,5" points="8,-70 8,-268 773,-268 773,-70 8,-70"/>
</g>
<g id="clust2" class="cluster">
<title>cluster_AppModule_declarations</title>
<polygon fill="none" stroke="#000000" points="354,-78 354,-130 765,-130 765,-78 354,-78"/>
</g>
<g id="clust6" class="cluster">
<title>cluster_AppModule_imports</title>
<polygon fill="none" stroke="#000000" points="202,-78 202,-130 346,-130 346,-78 202,-78"/>
</g>
<g id="clust8" class="cluster">
<title>cluster_AppModule_bootstrap</title>
<polygon fill="none" stroke="#000000" points="369,-208 369,-260 493,-260 493,-208 369,-208"/>
</g>
<g id="clust9" class="cluster">
<title>cluster_AppModule_providers</title>
<polygon fill="none" stroke="#000000" points="16,-78 16,-130 194,-130 194,-78 16,-78"/>
</g>
<!-- AppComponent -->
<g id="node1" class="node">
<title>AppComponent</title>
<polygon fill="#ffffb3" stroke="#000000" points="756.9399,-122 651.0601,-122 651.0601,-86 756.9399,-86 756.9399,-122"/>
<text text-anchor="middle" x="704" y="-99.8" font-family="Times,serif" font-size="14.00" fill="#000000">AppComponent</text>
</g>
<!-- AppModule -->
<g id="node4" class="node">
<title>AppModule</title>
<polygon fill="#8dd3c7" stroke="#000000" points="472.6571,-187 469.6571,-191 448.6571,-191 445.6571,-187 389.3429,-187 389.3429,-151 472.6571,-151 472.6571,-187"/>
<text text-anchor="middle" x="431" y="-164.8" font-family="Times,serif" font-size="14.00" fill="#000000">AppModule</text>
</g>
<!-- AppComponent&#45;&gt;AppModule -->
<g id="edge1" class="edge">
<title>AppComponent&#45;&gt;AppModule</title>
<path fill="none" stroke="#000000" d="M704,-122.2843C704,-143.3211 704,-175 704,-175 704,-175 482.76,-175 482.76,-175"/>
<polygon fill="#000000" stroke="#000000" points="482.76,-171.5001 472.76,-175 482.76,-178.5001 482.76,-171.5001"/>
</g>
<!-- HomeComponent -->
<g id="node2" class="node">
<title>HomeComponent</title>
<polygon fill="#ffffb3" stroke="#000000" points="633.5451,-122 518.4549,-122 518.4549,-86 633.5451,-86 633.5451,-122"/>
<text text-anchor="middle" x="576" y="-99.8" font-family="Times,serif" font-size="14.00" fill="#000000">HomeComponent</text>
</g>
<!-- HomeComponent&#45;&gt;AppModule -->
<g id="edge2" class="edge">
<title>HomeComponent&#45;&gt;AppModule</title>
<path fill="none" stroke="#000000" d="M576,-122.0225C576,-139.3734 576,-163 576,-163 576,-163 482.94,-163 482.94,-163"/>
<polygon fill="#000000" stroke="#000000" points="482.94,-159.5001 472.94,-163 482.94,-166.5001 482.94,-159.5001"/>
</g>
<!-- NotFoundComponent -->
<g id="node3" class="node">
<title>NotFoundComponent</title>
<polygon fill="#ffffb3" stroke="#000000" points="500.1122,-122 361.8878,-122 361.8878,-86 500.1122,-86 500.1122,-122"/>
<text text-anchor="middle" x="431" y="-99.8" font-family="Times,serif" font-size="14.00" fill="#000000">NotFoundComponent</text>
</g>
<!-- NotFoundComponent&#45;&gt;AppModule -->
<g id="edge3" class="edge">
<title>NotFoundComponent&#45;&gt;AppModule</title>
<path fill="none" stroke="#000000" d="M431,-122.1061C431,-122.1061 431,-140.991 431,-140.991"/>
<polygon fill="#000000" stroke="#000000" points="427.5001,-140.9909 431,-150.991 434.5001,-140.991 427.5001,-140.9909"/>
</g>
<!-- AppComponent  -->
<g id="node6" class="node">
<title>AppComponent </title>
<polygon fill="#80b1d3" stroke="#000000" points="485.439,-252 376.561,-252 376.561,-216 485.439,-216 485.439,-252"/>
<text text-anchor="middle" x="431" y="-229.8" font-family="Times,serif" font-size="14.00" fill="#000000">AppComponent </text>
</g>
<!-- AppModule&#45;&gt;AppComponent  -->
<g id="edge5" class="edge">
<title>AppModule&#45;&gt;AppComponent </title>
<path fill="none" stroke="#000000" stroke-dasharray="1,5" d="M431,-187.1061C431,-187.1061 431,-205.991 431,-205.991"/>
<polygon fill="#000000" stroke="#000000" points="427.5001,-205.9909 431,-215.991 434.5001,-205.991 427.5001,-205.9909"/>
</g>
<!-- AppRoutingModule -->
<g id="node5" class="node">
<title>AppRoutingModule</title>
<polygon fill="#8dd3c7" stroke="#000000" points="338.2744,-122 335.2744,-126 314.2744,-126 311.2744,-122 209.7256,-122 209.7256,-86 338.2744,-86 338.2744,-122"/>
<text text-anchor="middle" x="274" y="-99.8" font-family="Times,serif" font-size="14.00" fill="#000000">AppRoutingModule</text>
</g>
<!-- AppRoutingModule&#45;&gt;AppModule -->
<g id="edge4" class="edge">
<title>AppRoutingModule&#45;&gt;AppModule</title>
<path fill="none" stroke="#000000" d="M274,-122.0225C274,-139.3734 274,-163 274,-163 274,-163 379.3391,-163 379.3391,-163"/>
<polygon fill="#000000" stroke="#000000" points="379.3391,-166.5001 389.3391,-163 379.339,-159.5001 379.3391,-166.5001"/>
</g>
<!-- GithubApiService -->
<g id="node7" class="node">
<title>GithubApiService</title>
<ellipse fill="#fdb462" stroke="#000000" cx="105" cy="-104" rx="81.0994" ry="18"/>
<text text-anchor="middle" x="105" y="-99.8" font-family="Times,serif" font-size="14.00" fill="#000000">GithubApiService</text>
</g>
<!-- GithubApiService&#45;&gt;AppModule -->
<g id="edge6" class="edge">
<title>GithubApiService&#45;&gt;AppModule</title>
<path fill="none" stroke="#000000" d="M105,-122.2843C105,-143.3211 105,-175 105,-175 105,-175 379.0486,-175 379.0486,-175"/>
<polygon fill="#000000" stroke="#000000" points="379.0486,-178.5001 389.0486,-175 379.0486,-171.5001 379.0486,-178.5001"/>
</g>
</g>
</svg>
