<?xml version="1.0" encoding="UTF-8" standalone="no"?>
<!DOCTYPE svg PUBLIC "-//W3C//DTD SVG 1.1//EN"
 "http://www.w3.org/Graphics/SVG/1.1/DTD/svg11.dtd">
<!-- Generated by graphviz version 2.40.1 (20161225.0304)
 -->
<!-- Title: dependencies Pages: 1 -->
<svg width="1060pt" height="211pt"
 viewBox="0.00 0.00 1060.00 211.00" xmlns="http://www.w3.org/2000/svg" xmlns:xlink="http://www.w3.org/1999/xlink">
<g id="graph0" class="graph" transform="scale(1 1) rotate(0) translate(4 207)">
<title>dependencies</title>
<polygon fill="#ffffff" stroke="transparent" points="-4,4 -4,-207 1056,-207 1056,4 -4,4"/>
<text text-anchor="start" x="505.0091" y="-42.4" font-family="sans-serif" font-weight="bold" font-size="14.00" fill="#000000">Legend</text>
<polygon fill="#ffffb3" stroke="transparent" points="292,-10 292,-30 312,-30 312,-10 292,-10"/>
<text text-anchor="start" x="315.629" y="-15.4" font-family="sans-serif" font-size="14.00" fill="#000000"> &#160;Declarations</text>
<polygon fill="#8dd3c7" stroke="transparent" points="405,-10 405,-30 425,-30 425,-10 405,-10"/>
<text text-anchor="start" x="428.7251" y="-15.4" font-family="sans-serif" font-size="14.00" fill="#000000"> &#160;Module</text>
<polygon fill="#80b1d3" stroke="transparent" points="491,-10 491,-30 511,-30 511,-10 491,-10"/>
<text text-anchor="start" x="514.7812" y="-15.4" font-family="sans-serif" font-size="14.00" fill="#000000"> &#160;Bootstrap</text>
<polygon fill="#fdb462" stroke="transparent" points="588,-10 588,-30 608,-30 608,-10 588,-10"/>
<text text-anchor="start" x="611.6732" y="-15.4" font-family="sans-serif" font-size="14.00" fill="#000000"> &#160;Providers</text>
<polygon fill="#fb8072" stroke="transparent" points="684,-10 684,-30 704,-30 704,-10 684,-10"/>
<text text-anchor="start" x="707.7258" y="-15.4" font-family="sans-serif" font-size="14.00" fill="#000000"> &#160;Exports</text>
<g id="clust1" class="cluster">
<title>cluster_RepoModule</title>
<polygon fill="none" stroke="#000000" stroke-dasharray="1,5" points="8,-70 8,-195 1044,-195 1044,-70 8,-70"/>
</g>
<g id="clust2" class="cluster">
<title>cluster_RepoModule_declarations</title>
<polygon fill="none" stroke="#000000" points="490,-78 490,-130 1036,-130 1036,-78 490,-78"/>
</g>
<g id="clust6" class="cluster">
<title>cluster_RepoModule_imports</title>
<polygon fill="none" stroke="#000000" points="16,-78 16,-130 482,-130 482,-78 16,-78"/>
</g>
<!-- RepoDetailComponent -->
<g id="node1" class="node">
<title>RepoDetailComponent</title>
<polygon fill="#ffffb3" stroke="#000000" points="1027.5912,-122 882.4088,-122 882.4088,-86 1027.5912,-86 1027.5912,-122"/>
<text text-anchor="middle" x="955" y="-99.8" font-family="Times,serif" font-size="14.00" fill="#000000">RepoDetailComponent</text>
</g>
<!-- RepoModule -->
<g id="node4" class="node">
<title>RepoModule</title>
<polygon fill="#8dd3c7" stroke="#000000" points="537.6011,-187 534.6011,-191 513.6011,-191 510.6011,-187 448.3989,-187 448.3989,-151 537.6011,-151 537.6011,-187"/>
<text text-anchor="middle" x="493" y="-164.8" font-family="Times,serif" font-size="14.00" fill="#000000">RepoModule</text>
</g>
<!-- RepoDetailComponent&#45;&gt;RepoModule -->
<g id="edge1" class="edge">
<title>RepoDetailComponent&#45;&gt;RepoModule</title>
<path fill="none" stroke="#000000" d="M955,-122.2843C955,-143.3211 955,-175 955,-175 955,-175 547.7183,-175 547.7183,-175"/>
<polygon fill="#000000" stroke="#000000" points="547.7183,-171.5001 537.7183,-175 547.7182,-178.5001 547.7183,-171.5001"/>
</g>
<!-- RepoStatsBoxComponent -->
<g id="node2" class="node">
<title>RepoStatsBoxComponent</title>
<polygon fill="#ffffb3" stroke="#000000" points="864.9438,-122 703.0562,-122 703.0562,-86 864.9438,-86 864.9438,-122"/>
<text text-anchor="middle" x="784" y="-99.8" font-family="Times,serif" font-size="14.00" fill="#000000">RepoStatsBoxComponent</text>
</g>
<!-- RepoStatsBoxComponent&#45;&gt;RepoModule -->
<g id="edge2" class="edge">
<title>RepoStatsBoxComponent&#45;&gt;RepoModule</title>
<path fill="none" stroke="#000000" d="M784,-122.0225C784,-139.3734 784,-163 784,-163 784,-163 547.831,-163 547.831,-163"/>
<polygon fill="#000000" stroke="#000000" points="547.8311,-159.5001 537.831,-163 547.831,-166.5001 547.8311,-159.5001"/>
</g>
<!-- RepoStatsBoxItemComponent -->
<g id="node3" class="node">
<title>RepoStatsBoxItemComponent</title>
<polygon fill="#ffffb3" stroke="#000000" points="685.5996,-122 498.4004,-122 498.4004,-86 685.5996,-86 685.5996,-122"/>
<text text-anchor="middle" x="592" y="-99.8" font-family="Times,serif" font-size="14.00" fill="#000000">RepoStatsBoxItemComponent</text>
</g>
<!-- RepoStatsBoxItemComponent&#45;&gt;RepoModule -->
<g id="edge3" class="edge">
<title>RepoStatsBoxItemComponent&#45;&gt;RepoModule</title>
<path fill="none" stroke="#000000" d="M518.0004,-122.1061C518.0004,-122.1061 518.0004,-140.991 518.0004,-140.991"/>
<polygon fill="#000000" stroke="#000000" points="514.5004,-140.9909 518.0004,-150.991 521.5004,-140.991 514.5004,-140.9909"/>
</g>
<!-- NpmPackageInfoModule -->
<g id="node5" class="node">
<title>NpmPackageInfoModule</title>
<polygon fill="#8dd3c7" stroke="#000000" points="473.51,-122 470.51,-126 449.51,-126 446.51,-122 316.49,-122 316.49,-86 473.51,-86 473.51,-122"/>
<text text-anchor="middle" x="395" y="-99.8" font-family="Times,serif" font-size="14.00" fill="#000000">NpmPackageInfoModule</text>
</g>
<!-- NpmPackageInfoModule&#45;&gt;RepoModule -->
<g id="edge4" class="edge">
<title>NpmPackageInfoModule&#45;&gt;RepoModule</title>
<path fill="none" stroke="#000000" d="M461.1021,-122.1061C461.1021,-122.1061 461.1021,-140.991 461.1021,-140.991"/>
<polygon fill="#000000" stroke="#000000" points="457.6021,-140.9909 461.1021,-150.991 464.6021,-140.991 457.6021,-140.9909"/>
</g>
<!-- ObjectTreeModule -->
<g id="node6" class="node">
<title>ObjectTreeModule</title>
<polygon fill="#8dd3c7" stroke="#000000" points="298.0102,-122 295.0102,-126 274.0102,-126 271.0102,-122 175.9898,-122 175.9898,-86 298.0102,-86 298.0102,-122"/>
<text text-anchor="middle" x="237" y="-99.8" font-family="Times,serif" font-size="14.00" fill="#000000">ObjectTreeModule</text>
</g>
<!-- ObjectTreeModule&#45;&gt;RepoModule -->
<g id="edge5" class="edge">
<title>ObjectTreeModule&#45;&gt;RepoModule</title>
<path fill="none" stroke="#000000" d="M237,-122.0225C237,-139.3734 237,-163 237,-163 237,-163 438.4082,-163 438.4082,-163"/>
<polygon fill="#000000" stroke="#000000" points="438.4082,-166.5001 448.4082,-163 438.4082,-159.5001 438.4082,-166.5001"/>
</g>
<!-- RepoRoutingModule -->
<g id="node7" class="node">
<title>RepoRoutingModule</title>
<polygon fill="#8dd3c7" stroke="#000000" points="158.219,-122 155.219,-126 134.219,-126 131.219,-122 23.781,-122 23.781,-86 158.219,-86 158.219,-122"/>
<text text-anchor="middle" x="91" y="-99.8" font-family="Times,serif" font-size="14.00" fill="#000000">RepoRoutingModule</text>
</g>
<!-- RepoRoutingModule&#45;&gt;RepoModule -->
<g id="edge6" class="edge">
<title>RepoRoutingModule&#45;&gt;RepoModule</title>
<path fill="none" stroke="#000000" d="M91,-122.2843C91,-143.3211 91,-175 91,-175 91,-175 438.443,-175 438.443,-175"/>
<polygon fill="#000000" stroke="#000000" points="438.443,-178.5001 448.443,-175 438.443,-171.5001 438.443,-178.5001"/>
</g>
</g>
</svg>
