<?xml version="1.0" encoding="UTF-8" standalone="no"?>
<!DOCTYPE svg PUBLIC "-//W3C//DTD SVG 1.1//EN"
 "http://www.w3.org/Graphics/SVG/1.1/DTD/svg11.dtd">
<!-- Generated by graphviz version 2.40.1 (20161225.0304)
 -->
<!-- Title: dependencies Pages: 1 -->
<svg width="864pt" height="211pt"
 viewBox="0.00 0.00 864.00 211.00" xmlns="http://www.w3.org/2000/svg" xmlns:xlink="http://www.w3.org/1999/xlink">
<g id="graph0" class="graph" transform="scale(1 1) rotate(0) translate(4 207)">
<title>dependencies</title>
<polygon fill="#ffffff" stroke="transparent" points="-4,4 -4,-207 860,-207 860,4 -4,4"/>
<text text-anchor="start" x="407.0091" y="-42.4" font-family="sans-serif" font-weight="bold" font-size="14.00" fill="#000000">Legend</text>
<polygon fill="#ffffb3" stroke="transparent" points="194,-10 194,-30 214,-30 214,-10 194,-10"/>
<text text-anchor="start" x="217.629" y="-15.4" font-family="sans-serif" font-size="14.00" fill="#000000"> &#160;Declarations</text>
<polygon fill="#8dd3c7" stroke="transparent" points="307,-10 307,-30 327,-30 327,-10 307,-10"/>
<text text-anchor="start" x="330.7251" y="-15.4" font-family="sans-serif" font-size="14.00" fill="#000000"> &#160;Module</text>
<polygon fill="#80b1d3" stroke="transparent" points="393,-10 393,-30 413,-30 413,-10 393,-10"/>
<text text-anchor="start" x="416.7812" y="-15.4" font-family="sans-serif" font-size="14.00" fill="#000000"> &#160;Bootstrap</text>
<polygon fill="#fdb462" stroke="transparent" points="490,-10 490,-30 510,-30 510,-10 490,-10"/>
<text text-anchor="start" x="513.6732" y="-15.4" font-family="sans-serif" font-size="14.00" fill="#000000"> &#160;Providers</text>
<polygon fill="#fb8072" stroke="transparent" points="586,-10 586,-30 606,-30 606,-10 586,-10"/>
<text text-anchor="start" x="609.7258" y="-15.4" font-family="sans-serif" font-size="14.00" fill="#000000"> &#160;Exports</text>
<g id="clust1" class="cluster">
<title>cluster_ReposModule</title>
<polygon fill="none" stroke="#000000" stroke-dasharray="1,5" points="8,-70 8,-195 848,-195 848,-70 8,-70"/>
</g>
<g id="clust2" class="cluster">
<title>cluster_ReposModule_declarations</title>
<polygon fill="none" stroke="#000000" points="320,-78 320,-130 840,-130 840,-78 320,-78"/>
</g>
<g id="clust6" class="cluster">
<title>cluster_ReposModule_imports</title>
<polygon fill="none" stroke="#000000" points="16,-78 16,-130 312,-130 312,-78 16,-78"/>
</g>
<!-- RepoListComponent -->
<g id="node1" class="node">
<title>RepoListComponent</title>
<polygon fill="#ffffb3" stroke="#000000" points="832.1624,-122 699.8376,-122 699.8376,-86 832.1624,-86 832.1624,-122"/>
<text text-anchor="middle" x="766" y="-99.8" font-family="Times,serif" font-size="14.00" fill="#000000">RepoListComponent</text>
</g>
<!-- ReposModule -->
<g id="node4" class="node">
<title>ReposModule</title>
<polygon fill="#8dd3c7" stroke="#000000" points="461.0467,-187 458.0467,-191 437.0467,-191 434.0467,-187 366.9533,-187 366.9533,-151 461.0467,-151 461.0467,-187"/>
<text text-anchor="middle" x="414" y="-164.8" font-family="Times,serif" font-size="14.00" fill="#000000">ReposModule</text>
</g>
<!-- RepoListComponent&#45;&gt;ReposModule -->
<g id="edge1" class="edge">
<title>RepoListComponent&#45;&gt;ReposModule</title>
<path fill="none" stroke="#000000" d="M766,-122.2843C766,-143.3211 766,-175 766,-175 766,-175 471.107,-175 471.107,-175"/>
<polygon fill="#000000" stroke="#000000" points="471.1071,-171.5001 461.107,-175 471.107,-178.5001 471.1071,-171.5001"/>
</g>
<!-- ReposListItemComponent -->
<g id="node2" class="node">
<title>ReposListItemComponent</title>
<polygon fill="#ffffb3" stroke="#000000" points="681.7632,-122 518.2368,-122 518.2368,-86 681.7632,-86 681.7632,-122"/>
<text text-anchor="middle" x="600" y="-99.8" font-family="Times,serif" font-size="14.00" fill="#000000">ReposListItemComponent</text>
</g>
<!-- ReposListItemComponent&#45;&gt;ReposModule -->
<g id="edge2" class="edge">
<title>ReposListItemComponent&#45;&gt;ReposModule</title>
<path fill="none" stroke="#000000" d="M600,-122.0225C600,-139.3734 600,-163 600,-163 600,-163 471.4169,-163 471.4169,-163"/>
<polygon fill="#000000" stroke="#000000" points="471.4169,-159.5001 461.4169,-163 471.4169,-166.5001 471.4169,-159.5001"/>
</g>
<!-- ReposOverviewComponent -->
<g id="node3" class="node">
<title>ReposOverviewComponent</title>
<polygon fill="#ffffb3" stroke="#000000" points="499.5225,-122 328.4775,-122 328.4775,-86 499.5225,-86 499.5225,-122"/>
<text text-anchor="middle" x="414" y="-99.8" font-family="Times,serif" font-size="14.00" fill="#000000">ReposOverviewComponent</text>
</g>
<!-- ReposOverviewComponent&#45;&gt;ReposModule -->
<g id="edge3" class="edge">
<title>ReposOverviewComponent&#45;&gt;ReposModule</title>
<path fill="none" stroke="#000000" d="M414,-122.1061C414,-122.1061 414,-140.991 414,-140.991"/>
<polygon fill="#000000" stroke="#000000" points="410.5001,-140.9909 414,-150.991 417.5001,-140.991 410.5001,-140.9909"/>
</g>
<!-- ObjectTreeModule -->
<g id="node5" class="node">
<title>ObjectTreeModule</title>
<polygon fill="#8dd3c7" stroke="#000000" points="304.0102,-122 301.0102,-126 280.0102,-126 277.0102,-122 181.9898,-122 181.9898,-86 304.0102,-86 304.0102,-122"/>
<text text-anchor="middle" x="243" y="-99.8" font-family="Times,serif" font-size="14.00" fill="#000000">ObjectTreeModule</text>
</g>
<!-- ObjectTreeModule&#45;&gt;ReposModule -->
<g id="edge4" class="edge">
<title>ObjectTreeModule&#45;&gt;ReposModule</title>
<path fill="none" stroke="#000000" d="M243,-122.0225C243,-139.3734 243,-163 243,-163 243,-163 356.8208,-163 356.8208,-163"/>
<polygon fill="#000000" stroke="#000000" points="356.8209,-166.5001 366.8208,-163 356.8208,-159.5001 356.8209,-166.5001"/>
</g>
<!-- ReposRoutingModule -->
<g id="node6" class="node">
<title>ReposRoutingModule</title>
<polygon fill="#8dd3c7" stroke="#000000" points="163.6638,-122 160.6638,-126 139.6638,-126 136.6638,-122 24.3362,-122 24.3362,-86 163.6638,-86 163.6638,-122"/>
<text text-anchor="middle" x="94" y="-99.8" font-family="Times,serif" font-size="14.00" fill="#000000">ReposRoutingModule</text>
</g>
<!-- ReposRoutingModule&#45;&gt;ReposModule -->
<g id="edge5" class="edge">
<title>ReposRoutingModule&#45;&gt;ReposModule</title>
<path fill="none" stroke="#000000" d="M94,-122.2843C94,-143.3211 94,-175 94,-175 94,-175 356.7829,-175 356.7829,-175"/>
<polygon fill="#000000" stroke="#000000" points="356.7829,-178.5001 366.7829,-175 356.7829,-171.5001 356.7829,-178.5001"/>
</g>
</g>
</svg>
