<?xml version="1.0" encoding="UTF-8" standalone="no"?>
<!DOCTYPE svg PUBLIC "-//W3C//DTD SVG 1.1//EN"
 "http://www.w3.org/Graphics/SVG/1.1/DTD/svg11.dtd">
<!-- Generated by graphviz version 2.40.1 (20161225.0304)
 -->
<!-- Title: dependencies Pages: 1 -->
<svg width="698pt" height="211pt"
 viewBox="0.00 0.00 698.00 211.00" xmlns="http://www.w3.org/2000/svg" xmlns:xlink="http://www.w3.org/1999/xlink">
<g id="graph0" class="graph" transform="scale(1 1) rotate(0) translate(4 207)">
<title>dependencies</title>
<polygon fill="#ffffff" stroke="transparent" points="-4,4 -4,-207 694,-207 694,4 -4,4"/>
<text text-anchor="start" x="324.0091" y="-42.4" font-family="sans-serif" font-weight="bold" font-size="14.00" fill="#000000">Legend</text>
<polygon fill="#ffffb3" stroke="transparent" points="111,-10 111,-30 131,-30 131,-10 111,-10"/>
<text text-anchor="start" x="134.629" y="-15.4" font-family="sans-serif" font-size="14.00" fill="#000000"> &#160;Declarations</text>
<polygon fill="#8dd3c7" stroke="transparent" points="224,-10 224,-30 244,-30 244,-10 224,-10"/>
<text text-anchor="start" x="247.7251" y="-15.4" font-family="sans-serif" font-size="14.00" fill="#000000"> &#160;Module</text>
<polygon fill="#80b1d3" stroke="transparent" points="310,-10 310,-30 330,-30 330,-10 310,-10"/>
<text text-anchor="start" x="333.7812" y="-15.4" font-family="sans-serif" font-size="14.00" fill="#000000"> &#160;Bootstrap</text>
<polygon fill="#fdb462" stroke="transparent" points="407,-10 407,-30 427,-30 427,-10 407,-10"/>
<text text-anchor="start" x="430.6732" y="-15.4" font-family="sans-serif" font-size="14.00" fill="#000000"> &#160;Providers</text>
<polygon fill="#fb8072" stroke="transparent" points="503,-10 503,-30 523,-30 523,-10 503,-10"/>
<text text-anchor="start" x="526.7258" y="-15.4" font-family="sans-serif" font-size="14.00" fill="#000000"> &#160;Exports</text>
<g id="clust1" class="cluster">
<title>cluster_ReposModule</title>
<polygon fill="none" stroke="#000000" stroke-dasharray="1,5" points="8,-70 8,-195 682,-195 682,-70 8,-70"/>
</g>
<g id="clust2" class="cluster">
<title>cluster_ReposModule_declarations</title>
<polygon fill="none" stroke="#000000" points="180,-78 180,-130 674,-130 674,-78 180,-78"/>
</g>
<g id="clust6" class="cluster">
<title>cluster_ReposModule_imports</title>
<polygon fill="none" stroke="#000000" points="16,-78 16,-130 172,-130 172,-78 16,-78"/>
</g>
<!-- RepoDetailComponent -->
<g id="node1" class="node">
<title>RepoDetailComponent</title>
<polygon fill="#ffffb3" stroke="#000000" points="665.5912,-122 520.4088,-122 520.4088,-86 665.5912,-86 665.5912,-122"/>
<text text-anchor="middle" x="593" y="-99.8" font-family="Times,serif" font-size="14.00" fill="#000000">RepoDetailComponent</text>
</g>
<!-- ReposModule -->
<g id="node4" class="node">
<title>ReposModule</title>
<polygon fill="#8dd3c7" stroke="#000000" points="400.0467,-187 397.0467,-191 376.0467,-191 373.0467,-187 305.9533,-187 305.9533,-151 400.0467,-151 400.0467,-187"/>
<text text-anchor="middle" x="353" y="-164.8" font-family="Times,serif" font-size="14.00" fill="#000000">ReposModule</text>
</g>
<!-- RepoDetailComponent&#45;&gt;ReposModule -->
<g id="edge1" class="edge">
<title>RepoDetailComponent&#45;&gt;ReposModule</title>
<path fill="none" stroke="#000000" d="M593,-122.1061C593,-141.3391 593,-169 593,-169 593,-169 410.1299,-169 410.1299,-169"/>
<polygon fill="#000000" stroke="#000000" points="410.13,-165.5001 400.1299,-169 410.1299,-172.5001 410.13,-165.5001"/>
</g>
<!-- RepoListComponent -->
<g id="node2" class="node">
<title>RepoListComponent</title>
<polygon fill="#ffffb3" stroke="#000000" points="502.1624,-122 369.8376,-122 369.8376,-86 502.1624,-86 502.1624,-122"/>
<text text-anchor="middle" x="436" y="-99.8" font-family="Times,serif" font-size="14.00" fill="#000000">RepoListComponent</text>
</g>
<!-- RepoListComponent&#45;&gt;ReposModule -->
<g id="edge2" class="edge">
<title>RepoListComponent&#45;&gt;ReposModule</title>
<path fill="none" stroke="#000000" d="M384.9709,-122.1061C384.9709,-122.1061 384.9709,-140.991 384.9709,-140.991"/>
<polygon fill="#000000" stroke="#000000" points="381.471,-140.9909 384.9709,-150.991 388.471,-140.991 381.471,-140.9909"/>
</g>
<!-- ReposListItemComponent -->
<g id="node3" class="node">
<title>ReposListItemComponent</title>
<polygon fill="#ffffb3" stroke="#000000" points="351.7632,-122 188.2368,-122 188.2368,-86 351.7632,-86 351.7632,-122"/>
<text text-anchor="middle" x="270" y="-99.8" font-family="Times,serif" font-size="14.00" fill="#000000">ReposListItemComponent</text>
</g>
<!-- ReposListItemComponent&#45;&gt;ReposModule -->
<g id="edge3" class="edge">
<title>ReposListItemComponent&#45;&gt;ReposModule</title>
<path fill="none" stroke="#000000" d="M328.8044,-122.1061C328.8044,-122.1061 328.8044,-140.991 328.8044,-140.991"/>
<polygon fill="#000000" stroke="#000000" points="325.3044,-140.9909 328.8044,-150.991 332.3044,-140.991 325.3044,-140.9909"/>
</g>
<!-- ReposRoutingModule -->
<g id="node5" class="node">
<title>ReposRoutingModule</title>
<polygon fill="#8dd3c7" stroke="#000000" points="163.6638,-122 160.6638,-126 139.6638,-126 136.6638,-122 24.3362,-122 24.3362,-86 163.6638,-86 163.6638,-122"/>
<text text-anchor="middle" x="94" y="-99.8" font-family="Times,serif" font-size="14.00" fill="#000000">ReposRoutingModule</text>
</g>
<!-- ReposRoutingModule&#45;&gt;ReposModule -->
<g id="edge4" class="edge">
<title>ReposRoutingModule&#45;&gt;ReposModule</title>
<path fill="none" stroke="#000000" d="M94,-122.1061C94,-141.3391 94,-169 94,-169 94,-169 295.7966,-169 295.7966,-169"/>
<polygon fill="#000000" stroke="#000000" points="295.7966,-172.5001 305.7966,-169 295.7965,-165.5001 295.7966,-172.5001"/>
</g>
</g>
</svg>
