<?xml version="1.0" encoding="UTF-8" standalone="no"?>
<!DOCTYPE svg PUBLIC "-//W3C//DTD SVG 1.1//EN"
 "http://www.w3.org/Graphics/SVG/1.1/DTD/svg11.dtd">
<!-- Generated by graphviz version 2.40.1 (20161225.0304)
 -->
<!-- Title: dependencies Pages: 1 -->
<svg width="682pt" height="211pt"
 viewBox="0.00 0.00 682.00 211.00" xmlns="http://www.w3.org/2000/svg" xmlns:xlink="http://www.w3.org/1999/xlink">
<g id="graph0" class="graph" transform="scale(1 1) rotate(0) translate(4 207)">
<title>dependencies</title>
<polygon fill="#ffffff" stroke="transparent" points="-4,4 -4,-207 678,-207 678,4 -4,4"/>
<text text-anchor="start" x="316.0091" y="-42.4" font-family="sans-serif" font-weight="bold" font-size="14.00" fill="#000000">Legend</text>
<polygon fill="#ffffb3" stroke="transparent" points="103,-10 103,-30 123,-30 123,-10 103,-10"/>
<text text-anchor="start" x="126.629" y="-15.4" font-family="sans-serif" font-size="14.00" fill="#000000"> &#160;Declarations</text>
<polygon fill="#8dd3c7" stroke="transparent" points="216,-10 216,-30 236,-30 236,-10 216,-10"/>
<text text-anchor="start" x="239.7251" y="-15.4" font-family="sans-serif" font-size="14.00" fill="#000000"> &#160;Module</text>
<polygon fill="#80b1d3" stroke="transparent" points="302,-10 302,-30 322,-30 322,-10 302,-10"/>
<text text-anchor="start" x="325.7812" y="-15.4" font-family="sans-serif" font-size="14.00" fill="#000000"> &#160;Bootstrap</text>
<polygon fill="#fdb462" stroke="transparent" points="399,-10 399,-30 419,-30 419,-10 399,-10"/>
<text text-anchor="start" x="422.6732" y="-15.4" font-family="sans-serif" font-size="14.00" fill="#000000"> &#160;Providers</text>
<polygon fill="#fb8072" stroke="transparent" points="495,-10 495,-30 515,-30 515,-10 495,-10"/>
<text text-anchor="start" x="518.7258" y="-15.4" font-family="sans-serif" font-size="14.00" fill="#000000"> &#160;Exports</text>
<g id="clust1" class="cluster">
<title>cluster_ReposModule</title>
<polygon fill="none" stroke="#000000" stroke-dasharray="1,5" points="8,-70 8,-195 666,-195 666,-70 8,-70"/>
</g>
<g id="clust2" class="cluster">
<title>cluster_ReposModule_declarations</title>
<polygon fill="none" stroke="#000000" points="320,-78 320,-130 658,-130 658,-78 320,-78"/>
</g>
<g id="clust5" class="cluster">
<title>cluster_ReposModule_imports</title>
<polygon fill="none" stroke="#000000" points="16,-78 16,-130 312,-130 312,-78 16,-78"/>
</g>
<!-- RepoListComponent -->
<g id="node1" class="node">
<title>RepoListComponent</title>
<polygon fill="#ffffb3" stroke="#000000" points="650.1624,-122 517.8376,-122 517.8376,-86 650.1624,-86 650.1624,-122"/>
<text text-anchor="middle" x="584" y="-99.8" font-family="Times,serif" font-size="14.00" fill="#000000">RepoListComponent</text>
</g>
<!-- ReposModule -->
<g id="node3" class="node">
<title>ReposModule</title>
<polygon fill="#8dd3c7" stroke="#000000" points="375.0467,-187 372.0467,-191 351.0467,-191 348.0467,-187 280.9533,-187 280.9533,-151 375.0467,-151 375.0467,-187"/>
<text text-anchor="middle" x="328" y="-164.8" font-family="Times,serif" font-size="14.00" fill="#000000">ReposModule</text>
</g>
<!-- RepoListComponent&#45;&gt;ReposModule -->
<g id="edge1" class="edge">
<title>RepoListComponent&#45;&gt;ReposModule</title>
<path fill="none" stroke="#000000" d="M584,-122.1061C584,-141.3391 584,-169 584,-169 584,-169 385.2527,-169 385.2527,-169"/>
<polygon fill="#000000" stroke="#000000" points="385.2527,-165.5001 375.2527,-169 385.2526,-172.5001 385.2527,-165.5001"/>
</g>
<!-- ReposOverviewComponent -->
<g id="node2" class="node">
<title>ReposOverviewComponent</title>
<polygon fill="#ffffb3" stroke="#000000" points="499.5225,-122 328.4775,-122 328.4775,-86 499.5225,-86 499.5225,-122"/>
<text text-anchor="middle" x="414" y="-99.8" font-family="Times,serif" font-size="14.00" fill="#000000">ReposOverviewComponent</text>
</g>
<!-- ReposOverviewComponent&#45;&gt;ReposModule -->
<g id="edge2" class="edge">
<title>ReposOverviewComponent&#45;&gt;ReposModule</title>
<path fill="none" stroke="#000000" d="M351.756,-122.1061C351.756,-122.1061 351.756,-140.991 351.756,-140.991"/>
<polygon fill="#000000" stroke="#000000" points="348.256,-140.9909 351.756,-150.991 355.256,-140.991 348.256,-140.9909"/>
</g>
<!-- ObjectTreeModule -->
<g id="node4" class="node">
<title>ObjectTreeModule</title>
<polygon fill="#8dd3c7" stroke="#000000" points="304.0102,-122 301.0102,-126 280.0102,-126 277.0102,-122 181.9898,-122 181.9898,-86 304.0102,-86 304.0102,-122"/>
<text text-anchor="middle" x="243" y="-99.8" font-family="Times,serif" font-size="14.00" fill="#000000">ObjectTreeModule</text>
</g>
<!-- ObjectTreeModule&#45;&gt;ReposModule -->
<g id="edge3" class="edge">
<title>ObjectTreeModule&#45;&gt;ReposModule</title>
<path fill="none" stroke="#000000" d="M292.4909,-122.1061C292.4909,-122.1061 292.4909,-140.991 292.4909,-140.991"/>
<polygon fill="#000000" stroke="#000000" points="288.991,-140.9909 292.4909,-150.991 295.991,-140.991 288.991,-140.9909"/>
</g>
<!-- ReposRoutingModule -->
<g id="node5" class="node">
<title>ReposRoutingModule</title>
<polygon fill="#8dd3c7" stroke="#000000" points="163.6638,-122 160.6638,-126 139.6638,-126 136.6638,-122 24.3362,-122 24.3362,-86 163.6638,-86 163.6638,-122"/>
<text text-anchor="middle" x="94" y="-99.8" font-family="Times,serif" font-size="14.00" fill="#000000">ReposRoutingModule</text>
</g>
<!-- ReposRoutingModule&#45;&gt;ReposModule -->
<g id="edge4" class="edge">
<title>ReposRoutingModule&#45;&gt;ReposModule</title>
<path fill="none" stroke="#000000" d="M94,-122.1061C94,-141.3391 94,-169 94,-169 94,-169 270.9281,-169 270.9281,-169"/>
<polygon fill="#000000" stroke="#000000" points="270.9281,-172.5001 280.9281,-169 270.9281,-165.5001 270.9281,-172.5001"/>
</g>
</g>
</svg>
